<svg xmlns="http://www.w3.org/2000/svg" xmlns:xlink="http://www.w3.org/1999/xlink" version="1.1" x="0px" y="0px"
  viewBox="0 0 100 125" enable-background="new 0 0 100 100" xml:space="preserve" fill="#fff">
  <path d="M53,47.9v-34h-5.9v34c-5,1.3-8.6,5.8-8.6,11.2s3.7,9.9,8.6,11.2v15.7H53V70.4c5-1.3,8.6-5.8,8.6-11.2  S58,49.2,53,47.9z M50.1,64.8c-3.1,0-5.7-2.5-5.7-5.7s2.5-5.7,5.7-5.7s5.7,2.5,5.7,5.7S53.2,64.8,50.1,64.8z M27.1,30.1V13.9h-5.9  v16.2c-5,1.3-8.6,5.8-8.6,11.2c0,5.4,3.7,9.9,8.6,13v31.8h5.9V54.3c5-3.1,8.6-7.6,8.6-13C35.7,36,32,31.4,27.1,30.1z M24.1,47  c-3.1,0-5.7-2.5-5.7-5.7s2.5-5.7,5.7-5.7s5.7,2.5,5.7,5.7S27.2,47,24.1,47z M78.9,30.1V13.9h-5.9v16.2c-5,1.3-8.6,5.8-8.6,11.2  c0,5.4,3.7,9.9,8.6,11.2v33.5h5.9V52.6c5-1.3,8.6-5.8,8.6-11.2C87.5,36,83.8,31.4,78.9,30.1z M75.9,47c-3.1,0-5.7-2.5-5.7-5.7  s2.5-5.7,5.7-5.7s5.7,2.5,5.7,5.7S79,47,75.9,47z" />
</svg>